<svg width="34" height="34" viewBox="0 0 34 34" fill="none" xmlns="http://www.w3.org/2000/svg">
<path fill-rule="evenodd" clip-rule="evenodd" d="M21.1098 0.508065C12.0029 -1.7605 2.77896 3.78074 0.510182 12.8869C-1.76391 21.9983 3.77786 31.2213 12.8849 33.4899C21.9972 35.7638 31.2211 30.2225 33.4898 21.1111C35.7639 12.0049 30.2222 2.77663 21.1098 0.508065Z" fill="#FFAC30"/>
<path d="M23.5319 22.6348C22.3505 23.8775 20.838 24.5619 19.2728 24.5619C16.7074 24.5619 14.4862 22.7604 13.4408 20.1563H20.5665C21.1844 20.1563 21.6853 19.6554 21.6853 19.0375C21.6853 18.4196 21.1844 17.9186 20.5665 17.9186H12.8722C12.8282 17.5528 12.8042 17.1797 12.8042 16.7997C12.8042 16.3711 12.8344 15.951 12.8907 15.541H20.5665C21.1844 15.541 21.6853 15.04 21.6853 14.4221C21.6853 13.8042 21.1844 13.3032 20.5665 13.3032H13.5003C14.5681 10.7753 16.7539 9.03748 19.2728 9.03748C20.838 9.03748 22.3505 9.72201 23.5319 10.9645C23.9572 11.4121 24.665 11.4305 25.1136 11.0048C25.5615 10.579 25.5793 9.87077 25.154 9.42295C23.5461 7.73149 21.4576 6.79999 19.273 6.79999C15.5429 6.79999 12.3544 9.5091 11.1171 13.3035H8.11886C7.50097 13.3035 7 13.8045 7 14.4224C7 15.0403 7.50097 15.5412 8.11886 15.5412H10.6377C10.5924 15.9541 10.5664 16.3734 10.5664 16.8C10.5664 17.1786 10.5862 17.5512 10.6224 17.9189H8.11886C7.50097 17.9189 7 18.4199 7 19.0378C7 19.6556 7.50097 20.1566 8.11886 20.1566H11.0727C12.2763 24.0244 15.497 26.8 19.2728 26.8C21.4575 26.8 23.5456 25.8683 25.1534 24.1771C25.579 23.7291 25.5615 23.021 25.1133 22.5952C24.6656 22.1693 23.9572 22.1871 23.5319 22.6348Z" fill="white"/>
</svg>
