<svg width="34" height="34" viewBox="0 0 34 34" fill="none" xmlns="http://www.w3.org/2000/svg">
<path fill-rule="evenodd" clip-rule="evenodd" d="M21.1098 0.508065C12.0029 -1.7605 2.77896 3.78074 0.510182 12.8869C-1.76391 21.9983 3.77786 31.2213 12.8849 33.4899C21.9972 35.7638 31.2211 30.2225 33.4898 21.1111C35.7639 12.0049 30.2222 2.77663 21.1098 0.508065Z" fill="#FFAC30"/>
<path d="M24.0451 23.5805L24.0457 23.5821L23.9056 23.6129C23.8298 23.625 23.7679 23.6426 23.7111 23.67L23.6522 23.6919C22.7208 24.1641 21.7389 24.4066 20.7465 24.4066C20.5665 24.4066 20.2287 24.3589 19.7426 24.2649C19.2572 24.1816 18.729 24.0881 18.1636 23.986C17.5992 23.884 17.0445 23.7867 16.501 23.693C15.9525 23.5984 15.5282 23.5532 15.2043 23.5532C14.9756 23.5532 14.7439 23.5642 14.5151 23.5858L13.5386 23.6791L14.206 22.9601C14.273 22.8884 14.3362 22.8168 14.397 22.7459C14.6962 22.396 14.9442 22.0267 15.1342 21.6469C15.3238 21.267 15.4628 20.8487 15.5469 20.4019C15.631 19.954 15.6742 19.4491 15.6742 18.9014C15.6742 18.6514 15.645 18.4034 15.5868 18.1634L15.4754 17.7024L19.2063 17.6952C19.2725 17.6896 19.3293 17.6746 19.3847 17.6489C19.7983 17.5141 20.0661 17.1488 20.0661 16.7339C20.0661 16.2713 19.7356 15.8751 19.2795 15.7913C19.2462 15.7841 19.2162 15.7801 19.186 15.7793L19.1817 15.7795C19.1702 15.7793 19.1611 15.779 19.1538 15.7784L19.1054 15.7819H15.0144L14.9325 15.5197C14.5031 14.1421 14.2859 12.9786 14.2859 12.0606C14.2859 11.6117 14.3697 11.1791 14.5352 10.7749C14.7005 10.3721 14.9309 10.0124 15.2201 9.7062C15.5075 9.40138 15.8627 9.15817 16.2758 8.98353C16.6874 8.8097 17.1546 8.7213 17.6635 8.7213C19.7343 8.7213 20.8298 9.7054 21.0125 11.7298C21.0157 11.7408 21.0181 11.7523 21.0202 11.7639L21.0275 11.8555L21.0248 11.8745C21.0269 11.916 21.0387 11.9795 21.0628 12.0542C21.1595 12.6979 21.6805 13.1497 22.3062 13.1497C22.9539 13.1497 23.4885 12.6569 23.5555 12.0266H23.5549L23.5624 11.8539C23.5627 11.8512 23.56 11.8303 23.559 11.807L23.5584 11.7794C23.4856 10.9758 23.2911 10.2518 22.9825 9.63308C22.674 9.01675 22.2655 8.49309 21.7694 8.07711C21.2718 7.65926 20.6728 7.33864 19.9909 7.12409C19.3076 6.909 18.5455 6.79999 17.727 6.79999C16.8407 6.79999 16.0216 6.92829 15.2922 7.18141C14.5618 7.4348 13.9267 7.80069 13.4052 8.26783C12.882 8.7363 12.4695 9.31969 12.1792 10.0019C11.8883 10.6855 11.7407 11.459 11.7407 12.3025C11.7407 12.7 11.7943 13.1899 11.9001 13.7583C11.9831 14.2086 12.1098 14.7285 12.2772 15.3041L12.416 15.7822L10.2889 15.7776C9.80172 15.8237 9.41896 16.2351 9.41896 16.7344C9.41896 17.2246 9.7894 17.6328 10.2801 17.6842L10.3717 17.7008L12.968 17.703L13.0323 17.9968C13.1306 18.4492 13.1807 18.9126 13.1807 19.373C13.1807 20.0504 13.1161 20.6587 12.9889 21.1795C12.8622 21.6988 12.6777 22.1657 12.4398 22.5653C12.2025 22.9634 11.9081 23.3164 11.5637 23.6137C11.2211 23.9102 10.8233 24.177 10.383 24.4052C9.67315 24.6412 8.88057 25.0687 9.01504 25.8168C9.12486 26.4278 9.70664 26.8724 10.327 26.7902C10.3457 26.787 10.3463 26.7867 10.3626 26.7789C12.097 25.9882 13.6719 25.5894 15.0519 25.5894C15.2306 25.5894 15.4802 25.6194 15.7936 25.6789C16.1075 25.7383 16.4549 25.8112 16.8262 25.8964C17.1998 25.9807 17.5866 26.0739 17.9855 26.1763C18.3846 26.278 18.7687 26.3715 19.1383 26.4562C19.5079 26.5411 19.8452 26.6161 20.1508 26.6796C20.4578 26.7433 20.6945 26.7744 20.874 26.7744H20.9286C22.3225 26.7744 23.8024 26.1915 23.8651 26.1666C24.0017 26.1072 24.4196 25.9521 24.4196 25.9521C25.083 25.8015 25.4907 25.1576 25.3458 24.5116C25.2143 23.925 24.6451 23.5167 24.0451 23.5805Z" fill="white"/>
</svg>
