<svg width="34" height="34" viewBox="0 0 34 34" fill="none" xmlns="http://www.w3.org/2000/svg">
<path fill-rule="evenodd" clip-rule="evenodd" d="M21.1098 0.508065C12.0029 -1.7605 2.77896 3.78074 0.510182 12.8869C-1.76391 21.9983 3.77786 31.2213 12.8849 33.4899C21.9972 35.7638 31.2211 30.2225 33.4898 21.1111C35.7639 12.0049 30.2222 2.77663 21.1098 0.508065Z" fill="#FFAC30"/>
<path d="M27.5491 16.9882H24.422L24.8682 15.1829H27.5491C27.7986 15.1829 28.0002 14.9806 28.0002 14.7315C28.0002 14.4824 27.7979 14.2803 27.5491 14.2803H25.0914L25.6357 12.0791C25.7741 11.5116 25.8444 11.0989 25.8444 10.8534C25.8444 10.5487 25.742 10.3037 25.5317 10.1035C25.317 9.89978 25.062 9.80052 24.7521 9.80052C24.4479 9.80052 24.2202 9.87318 24.0744 10.0161C23.9044 10.1838 23.7883 10.3666 23.7196 10.5753C23.6406 10.8149 23.5558 11.1538 23.4663 11.5814L22.861 14.2803H19.4668L18.8872 12.1401C18.7126 11.5002 18.5723 11.0369 18.4707 10.7634C18.3821 10.5255 18.2173 10.2992 17.9803 10.0907C17.7612 9.89812 17.4363 9.80029 17.0153 9.80029C16.5964 9.80029 16.2673 9.89527 16.037 10.0826C15.7929 10.2814 15.615 10.5188 15.5082 10.7881C15.3883 11.0918 15.2489 11.5458 15.0945 12.1378L14.5197 14.2801H11.14L10.5356 11.5852C10.4029 10.96 10.2495 10.4837 10.0788 10.1662C10.0299 10.076 9.88121 9.80005 9.24863 9.80005C8.93329 9.80005 8.67731 9.90002 8.46669 10.1054C8.25773 10.3089 8.15609 10.554 8.15609 10.8529C8.15609 11.1246 8.22614 11.5358 8.36434 12.0763L8.90907 14.2796H6.45117C6.20184 14.2796 6 14.4817 6 14.7308C6 14.9798 6.20207 15.1822 6.45117 15.1822H9.13227L9.57845 16.9873H6.45117C6.20184 16.9873 6 17.1898 6 17.4384C6 17.688 6.20207 17.8896 6.45117 17.8896H9.80166L10.7729 21.8182C10.8446 22.1053 10.9262 22.4173 11.0179 22.7545C11.1029 23.0675 11.2129 23.3403 11.3444 23.5642C11.4655 23.7703 11.618 23.9252 11.8108 24.0361C12.0003 24.1455 12.2539 24.2011 12.5645 24.2011C12.9475 24.2011 13.2405 24.1109 13.4604 23.9261C13.6921 23.7312 13.8557 23.5106 13.9464 23.271C14.0516 22.9936 14.1967 22.5251 14.3777 21.8786L15.4669 17.8891H18.5467L19.623 21.8812C19.8104 22.5458 19.9571 23.0212 20.0588 23.2912C20.1462 23.5236 20.3076 23.7383 20.5382 23.9294C20.7557 24.1097 21.0578 24.2013 21.436 24.2013C21.8371 24.2013 22.1451 24.1082 22.3512 23.9264C22.5739 23.7288 22.7337 23.4966 22.8261 23.2373C22.9308 22.9412 23.0664 22.4632 23.2276 21.8175L24.1988 17.8894H27.5491C27.7986 17.8894 28.0002 17.6873 28.0002 17.4382C28.0005 17.1905 27.7986 16.9882 27.5491 16.9882ZM22.6582 15.1831L22.2533 16.9882H20.2003L19.7111 15.1831H22.6582ZM17.0167 12.2157L17.5733 14.2803H16.4528L17.0167 12.2157ZM11.3423 15.1831H14.2767L13.7923 16.9882H11.7471L11.3423 15.1831ZM12.6784 21.1389L11.9497 17.8905H13.5501L12.6784 21.1389ZM15.7136 16.9882L16.2063 15.1829H17.8165L18.3035 16.9882H15.7136ZM21.3235 21.1334L20.4449 17.8908H22.051L21.3235 21.1334Z" fill="white"/>
</svg>
