<svg width="34" height="34" viewBox="0 0 34 34" fill="none" xmlns="http://www.w3.org/2000/svg">
<path fill-rule="evenodd" clip-rule="evenodd" d="M21.1098 0.508065C12.0029 -1.7605 2.77896 3.78074 0.510182 12.8869C-1.76391 21.9983 3.77786 31.2213 12.8849 33.4899C21.9972 35.7638 31.2211 30.2225 33.4898 21.1111C35.7639 12.0049 30.2222 2.77663 21.1098 0.508065Z" fill="#FFAC30"/>
<g clip-path="url(#clip0)">
<path d="M22.0926 18.2532C21.9037 17.7411 21.6169 17.3068 21.2401 16.9617C20.8585 16.612 20.3734 16.3104 19.7985 16.0647C19.2861 15.8462 18.6838 15.6312 18.0131 15.4226V10.4844C19.1393 10.7584 19.7554 11.4981 19.845 12.6968H19.8479L19.8557 12.831C19.8765 13.3889 20.3304 13.826 20.8906 13.826C21.4884 13.826 21.9442 13.3817 21.9506 12.7925L21.9294 12.6054C21.7791 10.1536 20.4929 8.79549 18.0138 8.47214V5.80845C18.0138 5.25224 17.5609 4.79999 17.0052 4.79999C16.4489 4.79999 15.9963 5.25224 15.9963 5.80845V8.44486C15.5536 8.49849 15.1357 8.59452 14.7528 8.74212C14.156 8.97243 13.6399 9.29236 13.2207 9.69434C12.8018 10.0953 12.4767 10.5743 12.2554 11.1189C12.0334 11.6653 11.9204 12.278 11.9204 12.9405C11.9204 13.6753 12.0061 14.2934 12.1731 14.7766C12.3379 15.2532 12.6006 15.6624 12.9531 15.9919C13.3103 16.3265 13.7687 16.6152 14.316 16.8506C14.7898 17.0547 15.3574 17.2557 15.9963 17.4507V23.0637C14.5511 22.7508 13.7889 21.7926 13.7288 20.2016L13.7281 20.0657C13.7281 19.4968 13.2624 19.0337 12.6893 19.0337C12.0816 19.0337 11.636 19.4686 11.63 20.0674C11.7797 23.1248 13.2123 24.7867 15.996 25.1342V27.7914C15.996 28.3477 16.4485 28.8 17.0046 28.8C17.5609 28.8 18.0132 28.3477 18.0132 27.7914V25.1465C18.4944 25.0851 18.9445 24.9756 19.3517 24.8066C19.9893 24.5426 20.5393 24.1796 20.9877 23.729C21.4355 23.2789 21.7831 22.7445 22.0208 22.1399C22.2597 21.5344 22.3802 20.8711 22.3802 20.1683C22.3801 19.4153 22.2834 18.7709 22.0926 18.2532ZM15.6956 14.6926C15.1903 14.5177 14.8241 14.3434 14.5761 14.1595C14.3172 13.9678 14.156 13.7519 14.0949 13.5177C14.0403 13.3046 14.0121 13.0247 14.0121 12.6872C14.0121 12.2993 14.0905 11.9528 14.246 11.6557C14.4008 11.3593 14.6166 11.1127 14.8874 10.9225C15.1537 10.7354 15.4653 10.5932 15.8139 10.5006C15.8736 10.4844 15.935 10.4715 15.9957 10.4585V14.7943C15.8893 14.7585 15.7884 14.7246 15.6956 14.6926ZM19.5139 22.4402C19.1516 22.7868 18.6466 23.0091 18.0132 23.1119V18.1105C18.1153 18.1465 18.2181 18.1825 18.3097 18.2156C18.8258 18.4016 19.2325 18.595 19.5194 18.789C19.8194 18.992 20.0262 19.2284 20.1329 19.4908C20.236 19.7449 20.288 20.0571 20.288 20.4208C20.288 21.27 20.0278 21.949 19.5139 22.4402Z" fill="white"/>
</g>
<defs>
<clipPath id="clip0">
<rect width="24" height="24" fill="white" transform="translate(5 4.79999)"/>
</clipPath>
</defs>
</svg>
