<svg width="44" height="44" viewBox="0 0 44 44" fill="none" xmlns="http://www.w3.org/2000/svg">
<path d="M29.0711 29.0711C28.5407 29.6014 27.8336 29.6014 27.3033 29.0711L22 23.7678L16.6967 29.0711C16.1664 29.6014 15.4593 29.6014 14.9289 29.0711C14.3986 28.5407 14.3986 27.8336 14.9289 27.3033L20.2322 22L14.9289 16.6967C14.3986 16.1664 14.3986 15.4593 14.9289 14.9289C15.4593 14.3986 16.1664 14.3986 16.6967 14.9289L22 20.2322L27.3033 14.9289C27.8336 14.3986 28.5407 14.3986 29.0711 14.9289C29.6014 15.4593 29.6014 16.1664 29.0711 16.6967L23.7678 22L29.0711 27.3033C29.6014 27.8336 29.6014 28.5407 29.0711 29.0711Z" fill="black"/>
<mask id="mask0" mask-type="alpha" maskUnits="userSpaceOnUse" x="14" y="14" width="16" height="16">
<path d="M29.0711 29.0711C28.5407 29.6014 27.8336 29.6014 27.3033 29.0711L22 23.7678L16.6967 29.0711C16.1664 29.6014 15.4593 29.6014 14.9289 29.0711C14.3986 28.5407 14.3986 27.8336 14.9289 27.3033L20.2322 22L14.9289 16.6967C14.3986 16.1664 14.3986 15.4593 14.9289 14.9289C15.4593 14.3986 16.1664 14.3986 16.6967 14.9289L22 20.2322L27.3033 14.9289C27.8336 14.3986 28.5407 14.3986 29.0711 14.9289C29.6014 15.4593 29.6014 16.1664 29.0711 16.6967L23.7678 22L29.0711 27.3033C29.6014 27.8336 29.6014 28.5407 29.0711 29.0711Z" fill="white"/>
</mask>
<g mask="url(#mask0)">
<rect x="22" y="0.786804" width="30" height="30" transform="rotate(45 22 0.786804)" fill="white"/>
</g>
</svg>
