<svg width="25" height="25" viewBox="0 0 25 25" fill="none" xmlns="http://www.w3.org/2000/svg">
<path fill-rule="evenodd" clip-rule="evenodd" d="M21.8751 6.24999C21.8751 6.87499 21.4584 7.29166 20.8334 7.29166L4.16676 7.29166C3.54176 7.29166 3.12509 6.87499 3.12509 6.24999C3.12509 5.62499 3.54176 5.20832 4.16676 5.20832L20.8334 5.20832C21.4584 5.20832 21.8751 5.62499 21.8751 6.24999ZM14.5834 11.4583L4.16676 11.4583C3.54176 11.4583 3.12509 11.875 3.12509 12.5C3.12509 13.125 3.54176 13.5417 4.16676 13.5417L14.5834 13.5417C15.2084 13.5417 15.6251 13.125 15.6251 12.5C15.6251 11.875 15.2084 11.4583 14.5834 11.4583ZM8.33342 19.7917C8.95842 19.7917 9.37509 19.375 9.37509 18.75C9.37509 18.125 8.95842 17.7083 8.33342 17.7083H4.16676C3.54176 17.7083 3.12509 18.125 3.12509 18.75C3.12509 19.375 3.54176 19.7917 4.16676 19.7917H8.33342Z" fill="#0D1F3C"/>
</svg>
