<svg width="24" height="24" viewBox="0 0 24 24" fill="none" xmlns="http://www.w3.org/2000/svg">
<path fill-rule="evenodd" clip-rule="evenodd" d="M22.9 7.00001C22.9 5.39838 21.6016 4.10001 20 4.10001H3.99999C2.39837 4.10001 1.09999 5.39838 1.09999 7.00001V9.00001V17C1.09999 18.6016 2.39837 19.9 3.99999 19.9H20C21.6016 19.9 22.9 18.6016 22.9 17V9.00001V7.00001ZM20 5.90001C20.6075 5.90001 21.1 6.39249 21.1 7.00001V8.10001H2.89999V7.00001C2.89999 6.39249 3.39248 5.90001 3.99999 5.90001H20ZM2.89999 9.90001H21.1V17C21.1 17.6075 20.6075 18.1 20 18.1H3.99999C3.39248 18.1 2.89999 17.6075 2.89999 17V9.90001ZM10.9 15C10.9 14.5029 10.4971 14.1 9.99999 14.1H5.99999C5.50294 14.1 5.09999 14.5029 5.09999 15C5.09999 15.4971 5.50294 15.9 5.99999 15.9H9.99999C10.4971 15.9 10.9 15.4971 10.9 15Z" fill="#0D1F3C"/>
</svg>
