<svg width="24" height="24" viewBox="0 0 24 24" fill="none" xmlns="http://www.w3.org/2000/svg">
<path d="M3 18.75V12.1301C3 10.9814 3 10.4071 3.14805 9.87813C3.2792 9.4096 3.49473 8.96892 3.78405 8.57774C4.11067 8.13614 4.56404 7.78352 5.47078 7.07828L8.07078 5.05606L8.07079 5.05605C9.47608 3.96305 10.1787 3.41654 10.9546 3.20647C11.6392 3.02111 12.3608 3.02111 13.0454 3.20647C13.8213 3.41654 14.5239 3.96305 15.9292 5.05606L18.5292 7.07828C19.436 7.78352 19.8893 8.13614 20.2159 8.57774C20.5053 8.96892 20.7208 9.4096 20.8519 9.87813C21 10.4071 21 10.9814 21 12.1301V18.75C21 19.4478 21 19.7967 20.9139 20.0806C20.72 20.7198 20.2198 21.22 19.5806 21.4139C19.2967 21.5 18.9478 21.5 18.25 21.5H17.625C17.5089 21.5 17.4509 21.5 17.4019 21.4976C16.3745 21.4471 15.5529 20.6255 15.5024 19.5981C15.5 19.5491 15.5 19.4911 15.5 19.375V16.5C15.5 14.567 13.933 13 12 13C10.067 13 8.5 14.567 8.5 16.5V19.375C8.5 19.4911 8.5 19.5491 8.49759 19.5981C8.44712 20.6255 7.62554 21.4471 6.59813 21.4976C6.5491 21.5 6.49107 21.5 6.375 21.5H5.75C5.05222 21.5 4.70333 21.5 4.41943 21.4139C3.78023 21.22 3.28002 20.7198 3.08612 20.0806C3 19.7967 3 19.4478 3 18.75Z" stroke="#FFAC30" stroke-width="1.8"/>
</svg>
