<svg width="24" height="24" viewBox="0 0 24 24" fill="none" xmlns="http://www.w3.org/2000/svg">
<path d="M11.2711 14.5215C11.2711 14.885 11.5981 15.1807 12 15.1807C13.2057 15.1807 14.1865 16.0678 14.1865 17.1582C14.1865 17.9864 13.6086 18.7333 12.7484 19.0167C12.7419 19.0188 12.7354 19.0206 12.7289 19.0227V19.7949C12.7289 20.159 12.4026 20.4541 12 20.4541C11.5975 20.4541 11.2712 20.159 11.2712 19.7949V19.0285C10.7903 18.8821 10.3317 18.5911 9.93765 18.1668C9.67876 17.8881 9.71875 17.4723 10.027 17.2381C10.3353 17.004 10.795 17.0402 11.0539 17.319C11.4393 17.734 11.8751 17.9012 12.2495 17.778C12.5362 17.6835 12.7288 17.4344 12.7288 17.1582C12.7288 16.7947 12.4019 16.499 12 16.499C10.7943 16.499 9.81345 15.6119 9.81345 14.5215C9.81345 13.7254 10.3372 13.0104 11.1477 12.6999C11.1886 12.6843 11.2298 12.6702 11.2711 12.6569V11.8848C11.2711 11.5207 11.5975 11.2256 12 11.2256C12.4025 11.2256 12.7288 11.5207 12.7288 11.8848V12.6527C13.1075 12.7677 13.4733 12.9714 13.8023 13.2598C14.0914 13.5131 14.0987 13.9304 13.8186 14.1918C13.5385 14.4533 13.0771 14.4599 12.788 14.2066C12.4331 13.8956 12.0426 13.789 11.7162 13.9139C11.4458 14.0175 11.2711 14.256 11.2711 14.5215Z" fill="#0D1F3C"/>
<path fill-rule="evenodd" clip-rule="evenodd" d="M8.36937 9.11297C8.26178 8.96216 8.17491 8.7959 8.11275 8.61716C7.79127 7.68983 8.21438 6.59663 9.3201 6.14914L7.80526 3.64702C7.54111 3.21058 7.77139 2.64287 8.30197 2.49677C9.49894 2.16711 10.7431 2 12 2C13.2569 2 14.5011 2.16711 15.698 2.49677C16.2279 2.64269 16.4593 3.20998 16.1947 3.647L14.6799 6.14913C15.7897 6.59816 16.2077 7.6929 15.8875 8.61652C15.8251 8.79564 15.7382 8.96222 15.6308 9.11303C16.5308 9.6229 17.3507 10.3066 18.0715 11.1467C19.6137 12.9439 20.5 15.2119 20.5 17.3743C20.5 19.6279 19.5449 21.053 17.9755 21.9016C16.4266 22.7391 14.3061 23 12 23C9.69555 23 7.57503 22.7395 6.02574 21.9023C4.45598 21.054 3.5 19.6288 3.5 17.3743C3.5 15.2119 4.38628 12.9439 5.92851 11.1467C6.64942 10.3066 7.46926 9.62284 8.36937 9.11297ZM9.82764 3.77738C10.5404 3.64853 11.2676 3.5835 12 3.5835C12.7324 3.5835 13.4596 3.64853 14.1724 3.77738L12.9699 5.76363C12.3251 5.68947 11.6751 5.68951 11.0302 5.76367L9.82764 3.77738ZM6.73779 20.4639C7.8156 21.1155 9.51711 21.4246 12 21.4246C14.4829 21.4246 16.1844 21.1155 17.2622 20.4639C18.3196 19.8247 18.8096 18.834 18.8096 17.3743C18.8096 15.6003 18.0421 13.6401 16.754 12.1389C15.5426 10.7272 13.878 9.70654 12 9.70654C10.2956 9.70654 8.60437 10.556 7.24601 12.1389C5.95786 13.6401 5.19043 15.6003 5.19043 17.3743C5.19043 18.834 5.68045 19.8247 6.73779 20.4639ZM9.92879 7.42012C11.0266 7.07901 12.1752 7.01435 13.2918 7.2258L13.2958 7.22652C13.556 7.27599 13.8146 7.34036 14.0703 7.41984C14.4046 7.52422 14.5873 7.86674 14.4777 8.18285C14.3981 8.41178 14.1878 8.56944 13.9404 8.59498C13.3044 8.40634 12.6556 8.31054 12 8.31054C11.3457 8.31054 10.6982 8.40593 10.0634 8.59381C9.81222 8.56932 9.60142 8.41053 9.52244 8.18341C9.41268 7.86674 9.59538 7.52417 9.92879 7.42012Z" fill="#0D1F3C"/>
</svg>
