<svg width="24" height="24" viewBox="0 0 24 24" fill="none" xmlns="http://www.w3.org/2000/svg">
<path fill-rule="evenodd" clip-rule="evenodd" d="M12.6 10.625C12.6 11.0529 12.9471 11.4 13.375 11.4H21.625C22.0529 11.4 22.4 11.0529 22.4 10.625C22.3999 5.64835 18.3516 1.60001 13.375 1.60001C12.9471 1.60001 12.6 1.94711 12.6 2.37502V10.625ZM14.15 9.84998V3.19004C17.6538 3.55252 20.4474 6.34614 20.8099 9.84998H14.15Z" fill="#0D1F3C"/>
<path fill-rule="evenodd" clip-rule="evenodd" d="M10.9555 5.36958V13.2308L16.228 19.6723C16.5013 20.0071 16.4407 20.4898 16.1045 20.7527C15.3225 21.3637 14.6038 21.7822 13.7824 22.0434C12.9645 22.3035 12.0689 22.4 10.9443 22.4C5.81104 22.4 1.59998 18.4267 1.59998 13.5C1.59998 8.60752 5.42741 4.60001 10.1666 4.60001C10.5827 4.60001 10.9555 4.92571 10.9555 5.36958ZM3.17773 13.5C3.17773 17.5397 6.64249 20.8609 10.9443 20.8609C11.7915 20.8609 12.4386 20.8022 13 20.6617C13.0469 20.6499 13.0932 20.6376 13.1389 20.6248C13.6077 20.4927 14.0335 20.2957 14.4828 20.0066L9.55158 13.9815C9.44013 13.8462 9.37766 13.6763 9.37766 13.5V6.18557C5.90887 6.59888 3.17773 9.70691 3.17773 13.5Z" fill="#0D1F3C"/>
<path fill-rule="evenodd" clip-rule="evenodd" d="M19.6202 20.1802L19.619 20.1814C19.4796 20.3186 19.2913 20.4 19.0904 20.4L19.0889 20.4C19.0807 20.4 19.0582 20.4001 19.0323 20.3979C18.8153 20.3806 18.6189 20.2706 18.4884 20.0972L18.4876 20.0962L13.7625 13.8725C13.5847 13.6392 13.5502 13.3234 13.6697 13.0569C13.7904 12.7875 14.0564 12.6 14.3634 12.6H21.6357C22.0803 12.6 22.3993 12.9761 22.3993 13.3869C22.3993 15.9487 21.3893 18.4243 19.6202 20.1802ZM19.1396 18.4005C20.0883 17.2108 20.6829 15.7315 20.834 14.1738H15.9307L19.1396 18.4005Z" fill="#0D1F3C"/>
</svg>
