<svg width="24" height="24" viewBox="0 0 24 24" fill="none" xmlns="http://www.w3.org/2000/svg">
<path d="M12.8053 5.79943C13.1569 5.79943 13.4392 5.92728 13.6523 6.18297C13.876 6.43866 13.9772 6.75295 13.9559 7.12584C13.9453 7.48807 13.8227 7.79704 13.5884 8.05273C13.354 8.29777 13.061 8.42029 12.7094 8.42029C12.3472 8.42029 12.0542 8.29777 11.8305 8.05273C11.6174 7.79704 11.5162 7.48807 11.5268 7.12584C11.5481 6.75295 11.6866 6.43866 11.9423 6.18297C12.198 5.92728 12.4857 5.79943 12.8053 5.79943Z" fill="#FFAC30"/>
<path d="M12.246 9.8266C12.8 9.8266 13.1835 9.99706 13.3966 10.338C13.6203 10.6683 13.7322 11.1157 13.7322 11.6804C13.7322 11.9361 13.7055 12.2823 13.6523 12.7191C13.599 13.1559 13.5404 13.6141 13.4765 14.0935C13.4126 14.5729 13.354 15.0097 13.3007 15.4039C13.2474 15.7981 13.2208 16.0858 13.2208 16.2669C13.2208 16.4373 13.2474 16.5492 13.3007 16.6025C13.354 16.6558 13.4072 16.6824 13.4605 16.6824C13.5884 16.6824 13.7162 16.5918 13.844 16.4107C13.9719 16.2296 14.1051 15.8993 14.2436 15.4199L15.1065 15.6756C15.0639 15.8993 14.9787 16.155 14.8508 16.4427C14.7336 16.7303 14.5738 17.0073 14.3714 17.2737C14.169 17.5294 13.924 17.7424 13.6363 17.9129C13.3593 18.0834 13.0397 18.1686 12.6774 18.1686C12.0915 18.1686 11.6866 18.0088 11.4629 17.6892C11.2498 17.3696 11.1433 16.9274 11.1433 16.3628C11.1433 16.0538 11.1699 15.6862 11.2232 15.2601C11.2765 14.8339 11.3351 14.3971 11.399 13.9497C11.4736 13.5022 11.5375 13.0867 11.5907 12.7032C11.644 12.309 11.6707 11.984 11.6707 11.7283C11.6707 11.5472 11.644 11.4353 11.5907 11.3927C11.5375 11.3395 11.4789 11.3128 11.415 11.3128C11.2978 11.3128 11.1752 11.4034 11.0474 11.5845C10.9196 11.7656 10.7864 12.0959 10.6479 12.5753L9.78491 12.3196C9.82753 12.0959 9.91276 11.8402 10.0406 11.5525C10.1685 11.2649 10.3336 10.9932 10.536 10.7375C10.7491 10.4712 10.9941 10.2528 11.2711 10.0823C11.5588 9.91183 11.8837 9.8266 12.246 9.8266Z" fill="#FFAC30"/>
<path fill-rule="evenodd" clip-rule="evenodd" d="M4.23114 19.7689C-0.0770464 15.4607 -0.0770464 8.53933 4.23114 4.23114C8.53933 -0.0770464 15.4607 -0.0770469 19.7689 4.23114C24.077 8.53933 24.077 15.4607 19.7689 19.7689C15.4607 24.077 8.53933 24.077 4.23114 19.7689ZM18.3564 5.64366C14.8251 2.11236 9.17502 2.11236 5.64372 5.64366C2.11242 9.17496 2.11242 14.825 5.64372 18.3563C9.17502 21.8876 14.8251 21.8876 18.3564 18.3563C21.8877 14.825 21.8877 9.17496 18.3564 5.64366Z" fill="#FFAC30"/>
</svg>
