<svg width="24" height="24" viewBox="0 0 24 24" fill="none" xmlns="http://www.w3.org/2000/svg">
<path d="M8.1816 9.17159C8.1816 8.6059 8.60586 8.18164 9.17155 8.18164L14.8284 8.18164C14.9698 8.18164 15.1112 8.18164 15.182 8.25235C15.3234 8.25235 15.4648 8.39377 15.5355 8.46448C15.6062 8.53519 15.7476 8.67661 15.7476 8.81803C15.8184 8.88874 15.8184 9.03017 15.8184 9.17159L15.8184 14.8284C15.8184 15.3941 15.3941 15.8184 14.8284 15.8184C14.2627 15.8184 13.8385 15.3941 13.8385 14.8284V11.5758L9.87866 15.5355C9.45439 15.9598 8.88871 15.9598 8.46444 15.5355C8.04018 15.1113 8.04018 14.5456 8.46444 14.1213L12.4242 10.1615H9.17155C8.60586 10.1615 8.1816 9.73727 8.1816 9.17159Z" fill="#FFAC30"/>
<path fill-rule="evenodd" clip-rule="evenodd" d="M4.22159 4.22183C-0.0917651 8.53518 -0.0917651 15.4648 4.22159 19.7782C8.53494 24.0915 15.4646 24.0915 19.7779 19.7782C24.0913 15.4648 24.0913 8.53518 19.7779 4.22183C15.4646 -0.0915212 8.53494 -0.0915212 4.22159 4.22183ZM5.63586 5.63604C9.17139 2.10051 14.8282 2.10051 18.3638 5.63604C21.8993 9.17158 21.8993 14.8284 18.3638 18.364C14.8282 21.8995 9.17139 21.8995 5.63586 18.364C2.10032 14.8284 2.10032 9.17158 5.63586 5.63604Z" fill="#FFAC30"/>
</svg>
