<svg width="24" height="25" viewBox="0 0 24 25" fill="none" xmlns="http://www.w3.org/2000/svg">
<path d="M21.1667 4.75001V9.33334C21.1667 9.88334 20.8 10.25 20.25 10.25C19.7 10.25 19.3333 9.88334 19.3333 9.33334V6.95001L5.30833 20.975C5.125 21.1583 4.94167 21.25 4.66667 21.25C4.39167 21.25 4.20833 21.1583 4.025 20.975C3.65833 20.6083 3.65833 20.0583 4.025 19.6917L18.05 5.66668H15.6667C15.1167 5.66668 14.75 5.30001 14.75 4.75001C14.75 4.20001 15.1167 3.83334 15.6667 3.83334H20.25C20.3417 3.83334 20.525 3.83334 20.6167 3.92501C20.8 4.01668 20.9833 4.20001 21.075 4.38334C21.1667 4.47501 21.1667 4.65834 21.1667 4.75001Z" fill="#0D1F3C"/>
<path d="M20.25 15.75C19.7 15.75 19.3334 16.1167 19.3334 16.6667V19.05L15.3917 15.1083C15.025 14.7417 14.475 14.7417 14.1084 15.1083C13.7417 15.475 13.7417 16.025 14.1084 16.3917L18.05 20.3333H15.6667C15.1167 20.3333 14.75 20.7 14.75 21.25C14.75 21.8 15.1167 22.1667 15.6667 22.1667H20.25C20.3417 22.1667 20.525 22.1667 20.6167 22.075C20.8 21.9833 20.9834 21.8 21.075 21.6167C21.1667 21.525 21.1667 21.3417 21.1667 21.25V16.6667C21.1667 16.1167 20.8 15.75 20.25 15.75Z" fill="#0D1F3C"/>
<path d="M9.25 11.1667C8.975 11.1667 8.79167 11.075 8.60833 10.8917L4.025 6.30833C3.65833 5.94167 3.65833 5.39167 4.025 5.025C4.39167 4.65833 4.94167 4.65833 5.30833 5.025L9.89167 9.60833C10.2583 9.975 10.2583 10.525 9.89167 10.8917C9.70833 11.075 9.525 11.1667 9.25 11.1667Z" fill="#0D1F3C"/>
</svg>
